# AST/ASF file generated using VICON BodyLanguage
# -----------------------------------------------
:version 1.10
:name VICON
:units
  mass 1.0
  length 0.45
  angle deg
:documentation
   .ast/.asf automatically generated from VICON data using
   VICON BodyBuilder and BodyLanguage model FoxedUp or BRILLIANT.MOD
:root
   order TX TY TZ RX RY RZ
   axis XYZ
   position 0 0 0  
   orientation 0 0 0 
:bonedata
  begin
     id 1 
     name lhipjoint
     direction 0.70531 -0.63749 0.310071 
     length 2.59589 
     axis 0 0 0  XYZ
  end
  begin
     id 2 
     name lfemur
     direction 0.34202 -0.939693 0  
     length 6.19797  
     axis 0 0 20  XYZ
    dof rx ry rz
    limits (-160.0 20.0)
           (-70.0 70.0)
           (-60.0 70.0)
  end
  begin
     id 3 
     name ltibia
     direction 0.34202 -0.939693 0   
     length 7.80054   
     axis 0 0 20   XYZ
    dof rx
    limits (-10.0 170.0)
  end
  begin
     id 4 
     name lfoot
     direction 0.0828572 -0.227648 0.970212   
     length 1.88124   
     axis -90 7.62852e-016 20   XYZ
    dof rx rz
    limits (-45.0 90.0)
           (-70.0 20.0)
  end
  begin
     id 5 
     name ltoes
     direction 1.53544e-011 -4.219e-011 1   
     length 0.948015   
     axis -90 7.62852e-016 20   XYZ
    dof rx
    limits (-90.0 20.0)
  end
  begin
     id 6 
     name rhipjoint
     direction -0.730062 -0.614543 0.29891   
     length 2.69282  
     axis 0 0 0  XYZ 
  end
  begin
     id 7 
     name rfemur
     direction -0.34202 -0.939693 0   
     length 5.86298   
     axis 0 0 -20   XYZ
    dof rx ry rz
    limits (-160.0 20.0)
           (-70.0 70.0)
           (-70.0 60.0)
  end
  begin
     id 8 
     name rtibia
     direction -0.34202 -0.939693 0   
     length 7.72374   
     axis 0 0 -20   XYZ
    dof rx
    limits (-10.0 170.0)
 end
 begin
     id 9 
     name rfoot
     direction -0.0967421 -0.265797 0.959163   
     length 2.02368  
     axis -90 -7.62852e-016 -20   XYZ
    dof rx rz
    limits (-45.0 90.0)
           (-20.0 70.0)
  end
  begin
     id 10 
     name rtoes
     direction -1.53524e-011 -4.21768e-011 1   
     length 1.01373   
     axis -90 -7.62852e-016 -20   XYZ
    dof rx
    limits (-90.0 20.0)
  end
  begin
     id 11 
     name lowerback
     direction 0.00561702 0.992801 -0.119643   
     length 2.02816   
     axis 0 0 0   XYZ
    dof rx ry rz
    limits (-20.0 45.0)
           (-30.0 30.0)
           (-30.0 30.0)
  end
  begin
     id 12 
     name upperback
     direction 0.00155544 0.995735 -0.0922509   
     length 2.02265   
     axis 0 0 0   XYZ
    dof rx ry rz
    limits (-20.0 45.0)
           (-30.0 30.0)
           (-30.0 30.0)
  end
  begin
     id 13 
     name thorax
     direction -0.000937535 0.999317 -0.0369292   
     length 2.04823   
     axis 0 0 0   XYZ
    dof rx ry rz
    limits (-20.0 45.0)
           (-30.0 30.0)
           (-30.0 30.0)
  end
  begin
     id 14 
     name lowerneck
     direction -0.0813151 0.981659 0.172436   
     length 1.8875   
     axis 0 0 0   XYZ
    dof rx ry rz
    limits (-20.0 45.0)
           (-30.0 30.0)
           (-30.0 30.0)
  end
  begin
     id 15 
     name upperneck
     direction 0.119359 0.955672 -0.269157   
     length 1.92801   
     axis 0 0 0   XYZ
    dof rx ry rz
    limits (-20.0 45.0)
           (-30.0 30.0)
           (-30.0 30.0)
  end
  begin
     id 16
     name head
     direction 0.0421007 0.992672 -0.113268  
     length 1.95809  
     axis 0 0 0   XYZ
    dof rx ry rz
    limits (-20.0 45.0)
           (-30.0 30.0)
           (-30.0 30.0)
  end
  begin
     id 17 
     name lclavicle
     direction 0.944093 0.32865 -0.0260136  
     length 3.84992  
     axis 0 0 0   XYZ
    dof ry rz
    limits (-20.0 10.0)
           (0.0 20.0)
  end
  begin
     id 18 
     name lhumerus
     direction 1 -4.48979e-011 -1.27712e-029   
     length 5.53593   
     axis 180 -30 -90   XYZ
    dof rx ry rz
    limits (-60.0 90.0)
           (-90.0 90.0)
           (-90.0 90.0)
  end
  begin
     id 19
     name lradius
     direction 1 -4.48966e-011 1.00051e-028   
     length 3.13345   
     axis 180 -30 -90   XYZ
    dof rx
    limits (-10.0 170.0)
  end
  begin
     id 20
     name lwrist
     direction 1 -4.4896e-011 2.56952e-028   
     length 1.56673   
     axis -5.12785e-016 90 90   XYZ
    dof ry
    limits (-180.0 0.0)
 end
  begin
     id 21 
     name lhand
     direction 1 -4.48934e-011 5.13905e-028   
     length 0.713374   
     axis -3.27915e-016 90 90   XYZ
    dof rx rz
    limits (-90.0 90.0)
           (-45.0 45.0)
  end
  begin
     id 22 
     name lfingers
     direction 1 -4.48973e-011 1.02781e-027   
     length 0.575141   
     axis -6.5583e-016 90 90   XYZ
    dof rx
    limits (0.0 90.0)
  end
  begin
     id 23
     name lthumb
     direction 0.707107 -6.34883e-011 0.707107   
     length 0.82579   
     axis -90 45 2.85299e-015   XYZ
    dof rx rz
    limits (-45.0 45.0)
           (-45.0 45.0)
  end
  begin
     id 24 
     name rclavicle
     direction -0.936895 0.34884 0.0232243   
     length 3.53304  
     axis 0 0 0   XYZ 
    dof ry rz
    limits (-10.0 20.0)
           (-20.0 0.0)
  end
  begin
     id 25 
     name rhumerus
     direction -1 -4.48965e-011 1.05514e-027  
     length 5.4685   
     axis 180 30 90   XYZ
    dof rx ry rz
    limits (-90.0 60.0)
           (-90.0 90.0)
           (-90.0 90.0)
  end
  begin
     id 26 
     name rradius
     direction -1 -4.48964e-011 -1.1079e-027   
     length 3.22411   
     axis 180 30 90   XYZ
    dof rx
    limits (-10.0 170.0)
  end
  begin
     id 27 
     name rwrist
     direction -1 -4.48973e-011 2.56952e-028   
     length 1.61206   
     axis -5.12785e-016 -90 -90   XYZ
    dof ry
    limits (-180.0 0.0)
  end
  begin
     id 28
     name rhand
     direction -1 -4.48957e-011 5.13905e-028   
     length 0.74528   
     axis -3.27915e-016 -90 -90   XYZ
    dof rx rz
    limits (-90.0 90.0)
           (-45.0 45.0)
  end
  begin
     id 29
     name rfingers
     direction -1 -4.4901e-011 1.02781e-027   
     length 0.600864   
     axis -6.5583e-016 -90 -90   XYZ
    dof rx
    limits (0.0 90.0)
  end
  begin
     id 30
     name rthumb
     direction -0.707107 -6.34972e-011 0.707107   
     length 0.862724   
     axis -90 -45 -2.85299e-015   XYZ
    dof rx rz
    limits (-45.0 45.0)
           (-45.0 45.0)
  end
:hierarchy
  begin
    root lhipjoint rhipjoint lowerback
    lhipjoint lfemur
    lfemur ltibia
    ltibia lfoot
    lfoot ltoes
    rhipjoint rfemur
    rfemur rtibia
    rtibia rfoot
    rfoot rtoes
    lowerback upperback
    upperback thorax
    thorax lowerneck lclavicle rclavicle
    lowerneck upperneck
    upperneck head
    lclavicle lhumerus
    lhumerus lradius
    lradius lwrist
    lwrist lhand lthumb
    lhand lfingers
    rclavicle rhumerus
    rhumerus rradius
    rradius rwrist
    rwrist rhand rthumb
    rhand rfingers
  end

#!OML:ASF G:\Work\Work\Patient Classification 1\Liu\Session 1\Liu.ASF
:FULLY-SPECIFIED
:DEGREES
114
root 10.2226 16.0991 -31.1833 6.81945 3.05865 5.03273
lowerback 0.0711788 -1.87328 -4.43384
upperback 0.859998 -2.47519 -0.381828
thorax 1.01468 -1.2709 2.06589
lowerneck -23.2872 -4.4848 -11.6632
upperneck 23.925 -4.42375 8.26035
head 12.2264 -1.9705 4.32905
rclavicle 5.96354e-015 1.76918e-014
rhumerus -42.7118 15.5734 -90.0757
rradius 42.9744
rwrist -13.3425
rhand -15.3452 15.8013
rfingers 7.12502
rthumb 10.8318 -13.8994
lclavicle 5.96354e-015 1.76918e-014
lhumerus -22.7675 -18.6242 84.8447
lradius 37.3721
lwrist 5.63017
lhand -15.4624 30.9261
lfingers 7.12502
lthumb 10.7188 60.6326
rfemur -38.1344 -1.5343 16.016
rtibia 33.4299
rfoot -15.9693 -10.6884
rtoes -12.0153
lfemur -1.57505 -1.7113 -31.7586
ltibia 19.0039
lfoot -20.7859 -2.17117
ltoes -1.44288
115
root 10.2216 16.0724 -31.0103 6.97802 3.01292 5.14886
lowerback -0.186411 -1.85345 -4.55031
upperback 0.822841 -2.43453 -0.458025
thorax 1.11986 -1.25266 2.04486
lowerneck -23.1879 -4.51483 -11.5236
upperneck 23.7341 -4.52656 8.27705
head 12.1411 -2.00033 4.28775
rclavicle -1.3418e-014 2.22639e-014
rhumerus -42.9465 15.2072 -90.093
rradius 42.8538
rwrist -13.9611
rhand -15.607 16.2997
rfingers 7.12502
rthumb 10.5793 -13.414
lclavicle -1.3418e-014 2.22639e-014
lhumerus -22.2551 -19.1349 84.6099
lradius 37.7206
lwrist 6.037
lhand -14.9416 33.3501
lfingers 7.12502
lthumb 11.2211 63.03
rfemur -38.4893 -0.0317976 15.1952
rtibia 31.1366
rfoot -16.29 -11.1509
rtoes -10.513
lfemur -0.188273 -1.56434 -31.8593
ltibia 17.7249
lfoot -20.813 -2.645
ltoes -0.554332
116
root 10.2209 16.044 -30.8337 7.05724 3.15823 5.31183
lowerback -0.440019 -1.92333 -4.75455
upperback 0.789786 -2.51262 -0.455266
thorax 1.24286 -1.29543 2.15142
lowerneck -23.1134 -4.54419 -11.5836
upperneck 23.6751 -4.58049 8.37293
head 12.1144 -2.01825 4.324
rclavicle -3.80176e-014 -2.5842e-015
rhumerus -43.2772 14.9669 -89.9573
rradius 43.1312
rwrist -15.0036
rhand -15.1554 14.5474
rfingers 7.12502
rthumb 11.0149 -15.1436
lclavicle -3.80176e-014 -2.5842e-015
lhumerus -21.9208 -19.3565 84.5205
lradius 38.1152
lwrist 5.94362
lhand -16.3468 32.6703
lfingers 7.12502
lthumb 9.86555 62.4192
rfemur -38.7784 2.03393 13.9646
rtibia 29.0873
rfoot -17.1879 -12.3869
rtoes -8.77782
lfemur 1.31242 -1.64139 -31.9874
ltibia 16.368
lfoot -20.8371 -3.1135
ltoes 0.102719
117
root 10.2172 16.0304 -30.6562 7.12281 3.36119 5.37251
lowerback -0.634879 -2.04642 -4.93989
upperback 0.677548 -2.66798 -0.342123
thorax 1.26227 -1.37376 2.36235
lowerneck -22.9411 -4.55659 -11.8369
upperneck 23.6846 -4.57159 8.52688
head 12.0951 -2.02167 4.42882
rclavicle 3.81667e-014 -2.78299e-015
rhumerus -43.6455 14.96 -89.8173
rradius 42.8317
rwrist -14.1506
rhand -15.895 14.6436
rfingers 7.12502
rthumb 10.3015 -15.0841
lclavicle 3.81667e-014 -2.78299e-015
lhumerus -21.6571 -19.233 84.5073
lradius 38.4383
lwrist 5.18507
lhand -17.6375 30.5646
lfingers 7.12502
lthumb 8.62017 60.3686
rfemur -39.1822 5.21608 12.2639
rtibia 27.4389
rfoot -18.3005 -14.7545
rtoes -7.93262
lfemur 2.75639 -1.61893 -31.9694
ltibia 14.7612
lfoot -20.5405 -2.69792
ltoes -0.957713
118
root 10.2121 16.0181 -30.4813 7.28041 3.51647 5.5301
lowerback -0.786096 -2.18213 -5.19493
upperback 0.511934 -2.84243 -0.286314
thorax 1.20586 -1.45894 2.55517
lowerneck -22.701 -4.54137 -11.9518
upperneck 23.592 -4.53191 8.52177
head 12.0107 -2.01903 4.45006
rclavicle -2.4699e-014 -3.57812e-015
rhumerus -43.8977 15.0307 -89.7854
rradius 42.5225
rwrist -14.2035
rhand -16.0108 14.6558
rfingers 7.12502
rthumb 10.1898 -15.0774
lclavicle -2.4699e-014 -3.57812e-015
lhumerus -21.3628 -19.1306 84.4045
lradius 38.7225
lwrist 4.89382
lhand -15.3937 30.8932
lfingers 7.12502
lthumb 10.785 60.5963
rfemur -39.9204 8.87421 10.0669
rtibia 26.1878
rfoot -19.9673 -17.443
rtoes -7.79936
lfemur 4.19922 -1.44975 -32.0371
ltibia 12.9811
lfoot -19.9788 -2.31604
ltoes -1.83303
119
root 10.2099 15.999 -30.3021 7.33451 3.56206 5.80933
lowerback -1.04023 -2.25028 -5.47565
upperback 0.51935 -2.91217 -0.345863
thorax 1.37322 -1.49982 2.63728
lowerneck -22.501 -4.49935 -11.9582
upperneck 23.3351 -4.47814 8.5102
head 11.8656 -1.99744 4.44764
rclavicle 1.75924e-014 -1.55052e-014
rhumerus -44.0539 15.0432 -89.8598
rradius 42.2613
rwrist -14.753
rhand -16.408 15.4612
rfingers 7.12502
rthumb 9.8065 -14.2905
lclavicle 1.75924e-014 -1.55052e-014
lhumerus -20.8615 -19.2429 84.204
lradius 38.948
lwrist 5.1032
lhand -17.6008 29.5661
lfingers 7.12502
lthumb 8.65555 59.3687
rfemur -40.7265 12.0155 7.91722
rtibia 25.2804
rfoot -21.9475 -19.8927
rtoes -9.41151
lfemur 5.94643 -1.21735 -32.2694
ltibia 11.0941
lfoot -19.371 -2.25528
ltoes -2.24512
120
root 10.206 15.9769 -30.1222 7.29091 3.65302 6.0826
lowerback -1.14371 -2.28669 -5.72465
upperback 0.499499 -2.94912 -0.446299
thorax 1.42167 -1.52057 2.66745
lowerneck -22.192 -4.44503 -11.9285
upperneck 23.0595 -4.4537 8.57099
head 11.6976 -1.97846 4.46162
rclavicle -5.59082e-014 -1.90833e-014
rhumerus -44.2866 14.6611 -89.7794
rradius 42.1548
rwrist -13.8627
rhand -16.7528 15.7088
rfingers 7.12502
rthumb 9.47384 -14.0583
lclavicle -5.59082e-014 -1.90833e-014
lhumerus -20.464 -19.5471 84.0712
lradius 39.0732
lwrist 5.35128
lhand -15.9313 30.497
lfingers 7.12502
lthumb 10.2665 60.2264
rfemur -41.2428 11.5538 7.59999
rtibia 24.6667
rfoot -22.5209 -19.2731
rtoes -13.4838
lfemur 7.99121 -0.978853 -32.4633
ltibia 8.86185
lfoot -18.5735 -2.12268
ltoes -2.92222
121
root 10.2025 15.9485 -29.9446 7.31641 3.80618 6.34024
lowerback -1.15039 -2.32886 -5.89722
upperback 0.425507 -3.00316 -0.572242
thorax 1.3562 -1.54503 2.6338
lowerneck -22.1627 -4.46223 -11.8417
upperneck 23.0248 -4.53023 8.63742
head 11.6871 -1.99679 4.45855
rclavicle 1.3418e-015 -9.34288e-015
rhumerus -44.6447 14.3471 -89.8601
rradius 42.1555
rwrist -14.1783
rhand -17.3441 16.2487
rfingers 7.12502
rthumb 8.90331 -13.5435
lclavicle 1.3418e-015 -9.34288e-015
lhumerus -20.0933 -19.8313 83.9634
lradius 39.1219
lwrist 5.41553
lhand -17.8811 29.4815
lfingers 7.12502
lthumb 8.38511 59.2951
rfemur -41.7224 11.0056 7.28585
rtibia 24.1617
rfoot -23.3997 -18.2468
rtoes -12.965
lfemur 10.1674 -0.817245 -32.6141
ltibia 6.20018
lfoot -17.5725 -2.24337
ltoes -1.49408
122
root 10.2033 15.9235 -29.7656 7.38638 3.83665 6.42998
lowerback -1.31765 -2.33612 -5.93003
upperback 0.39254 -3.00088 -0.621355
thorax 1.41494 -1.54471 2.59515
lowerneck -22.3293 -4.52896 -11.77
upperneck 23.1545 -4.64436 8.66106
head 11.7817 -2.0368 4.44014
rclavicle 8.29926e-015 2.127e-014
rhumerus -44.9446 14.0031 -89.7959
rradius 42.3636
rwrist -14.7784
rhand -17.4865 16.5793
rfingers 7.12502
rthumb 8.76592 -13.2186
lclavicle 8.29926e-015 2.127e-014
lhumerus -19.7184 -19.983 83.9432
lradius 39.1386
lwrist 5.63702
lhand -16.3323 30.1085
lfingers 7.12502
lthumb 9.87958 59.8567
rfemur -42.0097 10.6503 7.23085
rtibia 23.6155
rfoot -24.0217 -17.549
rtoes -11.5382
lfemur 12.9443 -0.536211 -32.5807
ltibia 2.32831
lfoot -15.9985 -2.32838
ltoes 2.9024
123
root 10.1992 15.901 -29.5907 7.475 3.81147 6.51982
lowerback -1.44622 -2.34226 -6.10004
upperback 0.295826 -3.00037 -0.610444
thorax 1.39678 -1.54333 2.69789
lowerneck -22.3104 -4.56013 -11.698
upperneck 23.1775 -4.71558 8.65
head 11.7932 -2.06438 4.41218
rclavicle 4.72114e-015 1.05356e-014
rhumerus -45.2364 13.5333 -89.5658
rradius 42.3578
rwrist -14.7305
rhand -16.7099 16.0068
rfingers 7.12502
rthumb 9.51529 -13.7584
lclavicle 4.72114e-015 1.05356e-014
lhumerus -19.5782 -20.1867 84.0947
lradius 39.2246
lwrist 6.61549
lhand -16.9895 29.7529
lfingers 7.12502
lthumb 9.24546 59.5301
rfemur -42.0984 10.4112 7.34288
rtibia 23.0715
rfoot -23.7523 -17.5815
rtoes -12.3282
lfemur 14.8506 -0.215459 -32.5123
ltibia 3.18055e-015
lfoot -14.9372 -2.29939
ltoes 5.72435
